<svg width="1396" height="149" viewBox="0 0 1396 149" fill="none" xmlns="http://www.w3.org/2000/svg">
<circle cx="958.996" cy="27.7389" r="13.4865" transform="rotate(20.0728 958.996 27.7389)" fill="url(#paint0_linear_6311_61)" fill-opacity="0.8"/>
<g filter="url(#filter0_b_6311_61)">
<path fill-rule="evenodd" clip-rule="evenodd" d="M963.42 22.1667L984.541 29.8845C989.207 31.5895 991.607 36.7541 989.903 41.42L982.185 62.5409C980.48 67.2068 975.315 69.6072 970.649 67.9022L949.528 60.1844C944.862 58.4794 942.462 53.3148 944.167 48.6489L951.885 27.528C953.59 22.8621 958.754 20.4617 963.42 22.1667Z" fill="url(#paint1_linear_6311_61)" fill-opacity="0.8"/>
<path fill-rule="evenodd" clip-rule="evenodd" d="M963.42 22.1667L984.541 29.8845C989.207 31.5895 991.607 36.7541 989.903 41.42L982.185 62.5409C980.48 67.2068 975.315 69.6072 970.649 67.9022L949.528 60.1844C944.862 58.4794 942.462 53.3148 944.167 48.6489L951.885 27.528C953.59 22.8621 958.754 20.4617 963.42 22.1667Z" stroke="url(#paint2_radial_6311_61)" stroke-opacity="0.8" stroke-width="1.5" stroke-linecap="round"/>
</g>
<path d="M980.479 47.5534L978.936 51.7776" stroke="white" stroke-opacity="0.8" stroke-width="1.5" stroke-linecap="round" stroke-linejoin="round"/>
<g filter="url(#filter1_b_6311_61)">
<path fill-rule="evenodd" clip-rule="evenodd" d="M975.686 41.0138L971.056 53.6864L975.686 41.0138Z" fill="url(#paint3_linear_6311_61)" fill-opacity="0.8"/>
<path d="M975.686 41.0138L971.056 53.6864" stroke="url(#paint4_radial_6311_61)" stroke-opacity="0.8" stroke-width="1.5" stroke-linecap="round"/>
</g>
<path d="M953.591 42.5163L955.134 38.2921" stroke="white" stroke-opacity="0.8" stroke-width="1.5" stroke-linecap="round" stroke-linejoin="round"/>
<g filter="url(#filter2_b_6311_61)">
<path fill-rule="evenodd" clip-rule="evenodd" d="M958.383 49.056L963.014 36.3834Z" fill="url(#paint5_linear_6311_61)" fill-opacity="0.8"/>
<path d="M958.383 49.056L963.014 36.3834" stroke="url(#paint6_radial_6311_61)" stroke-opacity="0.8" stroke-width="1.5" stroke-linecap="round"/>
</g>
<path d="M970.894 34.4748L963.176 55.5957" stroke="white" stroke-opacity="0.8" stroke-width="1.5" stroke-linecap="round" stroke-linejoin="round"/>
<circle cx="33.2662" cy="62.2202" r="20.6241" transform="rotate(15 33.2662 62.2202)" fill="url(#paint7_linear_6311_61)" fill-opacity="0.8"/>
<g filter="url(#filter3_b_6311_61)">
<path fill-rule="evenodd" clip-rule="evenodd" d="M36.8248 48.9389L76.6675 59.6147L36.8248 48.9389Z" fill="url(#paint8_linear_6311_61)" fill-opacity="0.8"/>
<path d="M36.8248 48.9389L76.6675 59.6147" stroke="url(#paint9_radial_6311_61)" stroke-opacity="0.8" stroke-width="1.5" stroke-linecap="round"/>
</g>
<g filter="url(#filter4_b_6311_61)">
<path fill-rule="evenodd" clip-rule="evenodd" d="M46.134 40.7578L72.6958 47.875L46.134 40.7578Z" fill="url(#paint10_linear_6311_61)" fill-opacity="0.8"/>
<path d="M46.134 40.7578L72.6958 47.875" stroke="url(#paint11_radial_6311_61)" stroke-opacity="0.8" stroke-width="1.5" stroke-linecap="round"/>
</g>
<g filter="url(#filter5_b_6311_61)">
<path fill-rule="evenodd" clip-rule="evenodd" d="M67.6525 117.696L15.5913 103.746C11.6303 102.685 9.27993 98.6138 10.3413 94.6528L18.9531 62.513C20.0145 58.552 24.0854 56.2016 28.0464 57.263L80.1076 71.2127C84.0686 72.274 86.419 76.345 85.3576 80.306L76.7458 112.446C75.6844 116.407 71.6135 118.757 67.6525 117.696Z" fill="url(#paint12_linear_6311_61)" fill-opacity="0.8"/>
<path fill-rule="evenodd" clip-rule="evenodd" d="M67.6525 117.696L15.5913 103.746C11.6303 102.685 9.27993 98.6138 10.3413 94.6528L18.9531 62.513C20.0145 58.552 24.0854 56.2016 28.0464 57.263L80.1076 71.2127C84.0686 72.274 86.419 76.345 85.3576 80.306L76.7458 112.446C75.6844 116.407 71.6135 118.757 67.6525 117.696Z" stroke="url(#paint13_radial_6311_61)" stroke-opacity="0.8" stroke-width="1.5" stroke-linecap="round"/>
</g>
<path fill-rule="evenodd" clip-rule="evenodd" d="M46.2145 76.7413L57.061 87.8181C58.4332 89.2178 57.8007 91.5785 55.9125 92.1045L40.9807 96.2741C39.0573 96.8121 37.28 95.0512 37.7969 93.1222L41.8813 77.879C42.3982 75.95 44.8178 75.3136 46.2145 76.7413V76.7413Z" stroke="white" stroke-opacity="0.8" stroke-width="1.5" stroke-linecap="round" stroke-linejoin="round"/>
<ellipse cx="1326.72" cy="60.7021" rx="20.9063" ry="20.9063" transform="rotate(15 1326.72 60.7021)" fill="url(#paint14_linear_6311_61)" fill-opacity="0.8"/>
<g filter="url(#filter6_b_6311_61)">
<path fill-rule="evenodd" clip-rule="evenodd" d="M1330.33 47.2395L1370.72 58.0614L1330.33 47.2395Z" fill="url(#paint15_linear_6311_61)" fill-opacity="0.8"/>
<path d="M1330.33 47.2395L1370.72 58.0614" stroke="url(#paint16_radial_6311_61)" stroke-opacity="0.8" stroke-width="1.5" stroke-linecap="round"/>
</g>
<g filter="url(#filter7_b_6311_61)">
<path fill-rule="evenodd" clip-rule="evenodd" d="M1339.77 38.946L1366.69 46.1606L1339.77 38.946Z" fill="url(#paint17_linear_6311_61)" fill-opacity="0.8"/>
<path d="M1339.77 38.946L1366.69 46.1606" stroke="url(#paint18_radial_6311_61)" stroke-opacity="0.8" stroke-width="1.5" stroke-linecap="round"/>
</g>
<g filter="url(#filter8_b_6311_61)">
<path fill-rule="evenodd" clip-rule="evenodd" d="M1361.58 116.937L1308.8 102.796C1304.79 101.72 1302.41 97.5937 1303.48 93.5785L1312.21 60.9988C1313.29 56.9836 1317.41 54.6011 1321.43 55.677L1374.2 69.8176C1378.22 70.8935 1380.6 75.0201 1379.53 79.0354L1370.8 111.615C1369.72 115.63 1365.59 118.013 1361.58 116.937Z" fill="url(#paint19_linear_6311_61)" fill-opacity="0.8"/>
<path fill-rule="evenodd" clip-rule="evenodd" d="M1361.58 116.937L1308.8 102.796C1304.79 101.72 1302.41 97.5937 1303.48 93.5785L1312.21 60.9988C1313.29 56.9836 1317.41 54.6011 1321.43 55.677L1374.2 69.8176C1378.22 70.8935 1380.6 75.0201 1379.53 79.0354L1370.8 111.615C1369.72 115.63 1365.59 118.013 1361.58 116.937Z" stroke="url(#paint20_radial_6311_61)" stroke-opacity="0.8" stroke-width="1.5" stroke-linecap="round"/>
</g>
<path fill-rule="evenodd" clip-rule="evenodd" d="M1339.85 75.422L1350.84 86.6504C1352.23 88.0692 1351.59 90.4622 1349.68 90.9955L1334.54 95.2221C1332.59 95.7675 1330.79 93.9825 1331.31 92.0271L1335.45 76.5753C1335.98 74.6199 1338.43 73.9748 1339.85 75.422V75.422Z" stroke="white" stroke-opacity="0.8" stroke-width="1.5" stroke-linecap="round" stroke-linejoin="round"/>
<circle cx="303.5" cy="-6.75" r="13.5" fill="url(#paint21_linear_6311_61)"/>
<g filter="url(#filter9_b_6311_61)">
<path fill-rule="evenodd" clip-rule="evenodd" d="M334.64 22.5H299.36C296.676 22.5 294.5 20.3243 294.5 17.64V-4.14C294.5 -6.82425 296.676 -9 299.36 -9H334.64C337.324 -9 339.5 -6.82425 339.5 -4.14V17.64C339.5 20.3243 337.324 22.5 334.64 22.5Z" fill="url(#paint22_linear_6311_61)"/>
<path fill-rule="evenodd" clip-rule="evenodd" d="M334.64 22.5H299.36C296.676 22.5 294.5 20.3243 294.5 17.64V-4.14C294.5 -6.82425 296.676 -9 299.36 -9H334.64C337.324 -9 339.5 -6.82425 339.5 -4.14V17.64C339.5 20.3243 337.324 22.5 334.64 22.5Z" stroke="url(#paint23_radial_6311_61)" stroke-width="1.5" stroke-linecap="round"/>
</g>
<path fill-rule="evenodd" clip-rule="evenodd" d="M314.147 0.237774L322.881 5.40377C323.986 6.05627 323.986 7.65602 322.881 8.30852L314.147 13.4745C313.022 14.1405 311.6 13.3283 311.6 12.021V1.69127C311.6 0.384024 313.022 -0.428226 314.147 0.237774V0.237774Z" stroke="white" stroke-width="1.5" stroke-linecap="round" stroke-linejoin="round"/>
<ellipse cx="598.438" cy="121.002" rx="16.8388" ry="16.8388" transform="rotate(-21.0468 598.438 121.002)" fill="url(#paint24_linear_6311_61)" fill-opacity="0.8"/>
<g filter="url(#filter10_b_6311_61)">
<path fill-rule="evenodd" clip-rule="evenodd" d="M632.677 117.821L640.534 114.797C643.429 113.683 644.871 110.437 643.757 107.543L630.655 73.4929C629.541 70.5986 626.295 69.1565 623.4 70.2702L581.493 86.3963C578.598 87.5101 577.156 90.7563 578.27 93.6506L591.372 127.701C592.486 130.595 595.732 132.037 598.627 130.923L622.2 121.852" fill="url(#paint25_linear_6311_61)" fill-opacity="0.8"/>
<path d="M632.677 117.821L640.534 114.797C643.429 113.683 644.871 110.437 643.757 107.543L630.655 73.4929C629.541 70.5986 626.295 69.1565 623.4 70.2702L581.493 86.3963C578.598 87.5101 577.156 90.7563 578.27 93.6506L591.372 127.701C592.486 130.595 595.732 132.037 598.627 130.923L622.2 121.852" stroke="url(#paint26_radial_6311_61)" stroke-opacity="0.8" stroke-width="1.5" stroke-linecap="round"/>
</g>
<g filter="url(#filter11_b_6311_61)">
<path fill-rule="evenodd" clip-rule="evenodd" d="M598.116 90.5245L613.832 84.4772L598.116 90.5245Z" fill="url(#paint27_linear_6311_61)" fill-opacity="0.8"/>
<path d="M598.116 90.5245L613.832 84.4772" stroke="url(#paint28_radial_6311_61)" stroke-opacity="0.8" stroke-width="1.5" stroke-linecap="round"/>
</g>
<g filter="url(#filter12_b_6311_61)">
<path fill-rule="evenodd" clip-rule="evenodd" d="M625.217 90.6208L593.786 102.715L625.217 90.6208Z" fill="url(#paint29_linear_6311_61)" fill-opacity="0.8"/>
<path d="M625.217 90.6208L593.786 102.715" stroke="url(#paint30_radial_6311_61)" stroke-opacity="0.8" stroke-width="1.5" stroke-linecap="round"/>
</g>
<g filter="url(#filter13_b_6311_61)">
<path fill-rule="evenodd" clip-rule="evenodd" d="M599.33 117.121L607.188 114.097L599.33 117.121Z" fill="url(#paint31_linear_6311_61)" fill-opacity="0.8"/>
<path d="M599.33 117.121L607.188 114.097" stroke="url(#paint32_radial_6311_61)" stroke-opacity="0.8" stroke-width="1.5" stroke-linecap="round"/>
</g>
<path d="M626.825 101.666C631.074 103.553 632.989 108.529 631.101 112.778C629.213 117.028 624.238 118.942 619.989 117.054C615.739 115.166 613.825 110.191 615.712 105.942C617.6 101.692 622.575 99.7778 626.825 101.666" stroke="white" stroke-opacity="0.8" stroke-width="1.5" stroke-linecap="round" stroke-linejoin="round"/>
<path d="M630.884 113.161L635.701 125.679L629.454 125.075L625.224 129.71L620.407 117.193" stroke="white" stroke-opacity="0.8" stroke-width="1.5" stroke-linecap="round" stroke-linejoin="round"/>
<defs>
<filter id="filter0_b_6311_61" x="933.868" y="11.8677" width="66.3335" height="66.3335" filterUnits="userSpaceOnUse" color-interpolation-filters="sRGB">
<feFlood flood-opacity="0" result="BackgroundImageFix"/>
<feGaussianBlur in="BackgroundImageFix" stdDeviation="4.5"/>
<feComposite in2="SourceAlpha" operator="in" result="effect1_backgroundBlur_6311_61"/>
<feBlend mode="normal" in="SourceGraphic" in2="effect1_backgroundBlur_6311_61" result="shape"/>
</filter>
<filter id="filter1_b_6311_61" x="961.306" y="31.2637" width="24.1309" height="32.1729" filterUnits="userSpaceOnUse" color-interpolation-filters="sRGB">
<feFlood flood-opacity="0" result="BackgroundImageFix"/>
<feGaussianBlur in="BackgroundImageFix" stdDeviation="4.5"/>
<feComposite in2="SourceAlpha" operator="in" result="effect1_backgroundBlur_6311_61"/>
<feBlend mode="normal" in="SourceGraphic" in2="effect1_backgroundBlur_6311_61" result="shape"/>
</filter>
<filter id="filter2_b_6311_61" x="948.633" y="26.6333" width="24.1311" height="32.1729" filterUnits="userSpaceOnUse" color-interpolation-filters="sRGB">
<feFlood flood-opacity="0" result="BackgroundImageFix"/>
<feGaussianBlur in="BackgroundImageFix" stdDeviation="4.5"/>
<feComposite in2="SourceAlpha" operator="in" result="effect1_backgroundBlur_6311_61"/>
<feBlend mode="normal" in="SourceGraphic" in2="effect1_backgroundBlur_6311_61" result="shape"/>
</filter>
<filter id="filter3_b_6311_61" x="27.0746" y="39.189" width="59.3431" height="30.1758" filterUnits="userSpaceOnUse" color-interpolation-filters="sRGB">
<feFlood flood-opacity="0" result="BackgroundImageFix"/>
<feGaussianBlur in="BackgroundImageFix" stdDeviation="4.5"/>
<feComposite in2="SourceAlpha" operator="in" result="effect1_backgroundBlur_6311_61"/>
<feBlend mode="normal" in="SourceGraphic" in2="effect1_backgroundBlur_6311_61" result="shape"/>
</filter>
<filter id="filter4_b_6311_61" x="36.3838" y="31.0078" width="46.0623" height="26.6172" filterUnits="userSpaceOnUse" color-interpolation-filters="sRGB">
<feFlood flood-opacity="0" result="BackgroundImageFix"/>
<feGaussianBlur in="BackgroundImageFix" stdDeviation="4.5"/>
<feComposite in2="SourceAlpha" operator="in" result="effect1_backgroundBlur_6311_61"/>
<feBlend mode="normal" in="SourceGraphic" in2="effect1_backgroundBlur_6311_61" result="shape"/>
</filter>
<filter id="filter5_b_6311_61" x="0.336182" y="47.2578" width="95.0265" height="80.4429" filterUnits="userSpaceOnUse" color-interpolation-filters="sRGB">
<feFlood flood-opacity="0" result="BackgroundImageFix"/>
<feGaussianBlur in="BackgroundImageFix" stdDeviation="4.5"/>
<feComposite in2="SourceAlpha" operator="in" result="effect1_backgroundBlur_6311_61"/>
<feBlend mode="normal" in="SourceGraphic" in2="effect1_backgroundBlur_6311_61" result="shape"/>
</filter>
<filter id="filter6_b_6311_61" x="1320.58" y="37.4893" width="59.8884" height="30.3223" filterUnits="userSpaceOnUse" color-interpolation-filters="sRGB">
<feFlood flood-opacity="0" result="BackgroundImageFix"/>
<feGaussianBlur in="BackgroundImageFix" stdDeviation="4.5"/>
<feComposite in2="SourceAlpha" operator="in" result="effect1_backgroundBlur_6311_61"/>
<feBlend mode="normal" in="SourceGraphic" in2="effect1_backgroundBlur_6311_61" result="shape"/>
</filter>
<filter id="filter7_b_6311_61" x="1330.02" y="29.1958" width="46.4258" height="26.7148" filterUnits="userSpaceOnUse" color-interpolation-filters="sRGB">
<feFlood flood-opacity="0" result="BackgroundImageFix"/>
<feGaussianBlur in="BackgroundImageFix" stdDeviation="4.5"/>
<feComposite in2="SourceAlpha" operator="in" result="effect1_backgroundBlur_6311_61"/>
<feBlend mode="normal" in="SourceGraphic" in2="effect1_backgroundBlur_6311_61" result="shape"/>
</filter>
<filter id="filter8_b_6311_61" x="1293.47" y="45.6685" width="96.0601" height="81.2769" filterUnits="userSpaceOnUse" color-interpolation-filters="sRGB">
<feFlood flood-opacity="0" result="BackgroundImageFix"/>
<feGaussianBlur in="BackgroundImageFix" stdDeviation="4.5"/>
<feComposite in2="SourceAlpha" operator="in" result="effect1_backgroundBlur_6311_61"/>
<feBlend mode="normal" in="SourceGraphic" in2="effect1_backgroundBlur_6311_61" result="shape"/>
</filter>
<filter id="filter9_b_6311_61" x="284.75" y="-18.75" width="64.5" height="51" filterUnits="userSpaceOnUse" color-interpolation-filters="sRGB">
<feFlood flood-opacity="0" result="BackgroundImageFix"/>
<feGaussianBlur in="BackgroundImageFix" stdDeviation="4.5"/>
<feComposite in2="SourceAlpha" operator="in" result="effect1_backgroundBlur_6311_61"/>
<feBlend mode="normal" in="SourceGraphic" in2="effect1_backgroundBlur_6311_61" result="shape"/>
</filter>
<filter id="filter10_b_6311_61" x="568.144" y="60.1436" width="85.74" height="80.9062" filterUnits="userSpaceOnUse" color-interpolation-filters="sRGB">
<feFlood flood-opacity="0" result="BackgroundImageFix"/>
<feGaussianBlur in="BackgroundImageFix" stdDeviation="4.5"/>
<feComposite in2="SourceAlpha" operator="in" result="effect1_backgroundBlur_6311_61"/>
<feBlend mode="normal" in="SourceGraphic" in2="effect1_backgroundBlur_6311_61" result="shape"/>
</filter>
<filter id="filter11_b_6311_61" x="588.366" y="74.7271" width="35.2158" height="25.5479" filterUnits="userSpaceOnUse" color-interpolation-filters="sRGB">
<feFlood flood-opacity="0" result="BackgroundImageFix"/>
<feGaussianBlur in="BackgroundImageFix" stdDeviation="4.5"/>
<feComposite in2="SourceAlpha" operator="in" result="effect1_backgroundBlur_6311_61"/>
<feBlend mode="normal" in="SourceGraphic" in2="effect1_backgroundBlur_6311_61" result="shape"/>
</filter>
<filter id="filter12_b_6311_61" x="584.036" y="80.8706" width="50.9314" height="31.5952" filterUnits="userSpaceOnUse" color-interpolation-filters="sRGB">
<feFlood flood-opacity="0" result="BackgroundImageFix"/>
<feGaussianBlur in="BackgroundImageFix" stdDeviation="4.5"/>
<feComposite in2="SourceAlpha" operator="in" result="effect1_backgroundBlur_6311_61"/>
<feBlend mode="normal" in="SourceGraphic" in2="effect1_backgroundBlur_6311_61" result="shape"/>
</filter>
<filter id="filter13_b_6311_61" x="589.58" y="104.347" width="27.3582" height="22.5244" filterUnits="userSpaceOnUse" color-interpolation-filters="sRGB">
<feFlood flood-opacity="0" result="BackgroundImageFix"/>
<feGaussianBlur in="BackgroundImageFix" stdDeviation="4.5"/>
<feComposite in2="SourceAlpha" operator="in" result="effect1_backgroundBlur_6311_61"/>
<feBlend mode="normal" in="SourceGraphic" in2="effect1_backgroundBlur_6311_61" result="shape"/>
</filter>
<linearGradient id="paint0_linear_6311_61" x1="965.74" y1="16.5002" x2="936.519" y2="14.2524" gradientUnits="userSpaceOnUse">
<stop stop-color="#41B5D9" stop-opacity="0"/>
<stop offset="1" stop-color="#41B5D9"/>
</linearGradient>
<linearGradient id="paint1_linear_6311_61" x1="930.846" y1="-32.8301" x2="933.073" y2="71.9671" gradientUnits="userSpaceOnUse">
<stop stop-color="white" stop-opacity="0.4"/>
<stop offset="1" stop-color="white" stop-opacity="0"/>
</linearGradient>
<radialGradient id="paint2_radial_6311_61" cx="0" cy="0" r="1" gradientUnits="userSpaceOnUse" gradientTransform="translate(967.035 45.0344) rotate(110.073) scale(20.2382 15.7408)">
<stop stop-color="white"/>
<stop offset="1" stop-color="white" stop-opacity="0.5"/>
</radialGradient>
<linearGradient id="paint3_linear_6311_61" x1="977.149" y1="27.1836" x2="987.893" y2="37.2837" gradientUnits="userSpaceOnUse">
<stop stop-color="white" stop-opacity="0.4"/>
<stop offset="1" stop-color="white" stop-opacity="0"/>
</linearGradient>
<radialGradient id="paint4_radial_6311_61" cx="0" cy="0" r="1" gradientUnits="userSpaceOnUse" gradientTransform="translate(973.371 47.3501) rotate(110.073) scale(6.74605 0.87449)">
<stop stop-color="white"/>
<stop offset="1" stop-color="white" stop-opacity="0.5"/>
</radialGradient>
<linearGradient id="paint5_linear_6311_61" x1="964.476" y1="22.5532" x2="975.221" y2="32.6533" gradientUnits="userSpaceOnUse">
<stop stop-color="white" stop-opacity="0.4"/>
<stop offset="1" stop-color="white" stop-opacity="0"/>
</linearGradient>
<radialGradient id="paint6_radial_6311_61" cx="0" cy="0" r="1" gradientUnits="userSpaceOnUse" gradientTransform="translate(960.698 42.7197) rotate(110.073) scale(6.74606 0.874488)">
<stop stop-color="white"/>
<stop offset="1" stop-color="white" stop-opacity="0.5"/>
</radialGradient>
<linearGradient id="paint7_linear_6311_61" x1="53.8903" y1="78.7195" x2="7.48606" y2="41.5961" gradientUnits="userSpaceOnUse">
<stop stop-color="#41B5D9" stop-opacity="0"/>
<stop offset="1" stop-color="#41B5D9"/>
</linearGradient>
<linearGradient id="paint8_linear_6311_61" x1="-1.68339" y1="33.2828" x2="-3.85409" y2="42.5813" gradientUnits="userSpaceOnUse">
<stop stop-color="white" stop-opacity="0.4"/>
<stop offset="1" stop-color="white" stop-opacity="0"/>
</linearGradient>
<radialGradient id="paint9_radial_6311_61" cx="0" cy="0" r="1" gradientUnits="userSpaceOnUse" gradientTransform="translate(56.7462 54.2768) rotate(105) scale(1.71867 16.041)">
<stop stop-color="white"/>
<stop offset="1" stop-color="white" stop-opacity="0.5"/>
</radialGradient>
<linearGradient id="paint10_linear_6311_61" x1="20.9067" y1="28.6602" x2="18.8883" y2="37.9866" gradientUnits="userSpaceOnUse">
<stop stop-color="white" stop-opacity="0.4"/>
<stop offset="1" stop-color="white" stop-opacity="0"/>
</linearGradient>
<radialGradient id="paint11_radial_6311_61" cx="0" cy="0" r="1" gradientUnits="userSpaceOnUse" gradientTransform="translate(59.4149 44.3164) rotate(105) scale(1.71868 10.694)">
<stop stop-color="white"/>
<stop offset="1" stop-color="white" stop-opacity="0.5"/>
</radialGradient>
<linearGradient id="paint12_linear_6311_61" x1="-33.0746" y1="-8.93488" x2="-32.4943" y2="120.1" gradientUnits="userSpaceOnUse">
<stop stop-color="white" stop-opacity="0.4"/>
<stop offset="1" stop-color="white" stop-opacity="0"/>
</linearGradient>
<radialGradient id="paint13_radial_6311_61" cx="0" cy="0" r="1" gradientUnits="userSpaceOnUse" gradientTransform="translate(47.8494 87.4794) rotate(105) scale(24.0615 26.7349)">
<stop stop-color="white"/>
<stop offset="1" stop-color="white" stop-opacity="0.5"/>
</radialGradient>
<linearGradient id="paint14_linear_6311_61" x1="1347.63" y1="77.4272" x2="1300.59" y2="39.7958" gradientUnits="userSpaceOnUse">
<stop stop-color="#41B5D9" stop-opacity="0"/>
<stop offset="1" stop-color="#41B5D9"/>
</linearGradient>
<linearGradient id="paint15_linear_6311_61" x1="1291.29" y1="31.3691" x2="1289.09" y2="40.7949" gradientUnits="userSpaceOnUse">
<stop stop-color="white" stop-opacity="0.4"/>
<stop offset="1" stop-color="white" stop-opacity="0"/>
</linearGradient>
<radialGradient id="paint16_radial_6311_61" cx="0" cy="0" r="1" gradientUnits="userSpaceOnUse" gradientTransform="translate(1350.52 52.6504) rotate(105) scale(1.7422 16.2605)">
<stop stop-color="white"/>
<stop offset="1" stop-color="white" stop-opacity="0.5"/>
</radialGradient>
<linearGradient id="paint17_linear_6311_61" x1="1314.19" y1="26.6829" x2="1312.15" y2="36.1369" gradientUnits="userSpaceOnUse">
<stop stop-color="white" stop-opacity="0.4"/>
<stop offset="1" stop-color="white" stop-opacity="0"/>
</linearGradient>
<radialGradient id="paint18_radial_6311_61" cx="0" cy="0" r="1" gradientUnits="userSpaceOnUse" gradientTransform="translate(1353.23 42.5533) rotate(105) scale(1.7422 10.8403)">
<stop stop-color="white"/>
<stop offset="1" stop-color="white" stop-opacity="0.5"/>
</radialGradient>
<linearGradient id="paint19_linear_6311_61" x1="1259.47" y1="-11.4268" x2="1260.06" y2="119.374" gradientUnits="userSpaceOnUse">
<stop stop-color="white" stop-opacity="0.4"/>
<stop offset="1" stop-color="white" stop-opacity="0"/>
</linearGradient>
<radialGradient id="paint20_radial_6311_61" cx="0" cy="0" r="1" gradientUnits="userSpaceOnUse" gradientTransform="translate(1341.5 86.3069) rotate(105) scale(24.3907 27.1008)">
<stop stop-color="white"/>
<stop offset="1" stop-color="white" stop-opacity="0.5"/>
</radialGradient>
<linearGradient id="paint21_linear_6311_61" x1="317" y1="4.05" x2="286.625" y2="-20.25" gradientUnits="userSpaceOnUse">
<stop stop-color="#41B5D9" stop-opacity="0"/>
<stop offset="1" stop-color="#41B5D9"/>
</linearGradient>
<linearGradient id="paint22_linear_6311_61" x1="249.5" y1="-40.5" x2="271.728" y2="40.9866" gradientUnits="userSpaceOnUse">
<stop stop-color="white" stop-opacity="0.4"/>
<stop offset="1" stop-color="white" stop-opacity="0"/>
</linearGradient>
<radialGradient id="paint23_radial_6311_61" cx="0" cy="0" r="1" gradientUnits="userSpaceOnUse" gradientTransform="translate(317 6.75) rotate(90) scale(15.75 17.5)">
<stop stop-color="white"/>
<stop offset="1" stop-color="white" stop-opacity="0.5"/>
</radialGradient>
<linearGradient id="paint24_linear_6311_61" x1="615.277" y1="129.421" x2="566.445" y2="148.786" gradientUnits="userSpaceOnUse">
<stop stop-color="#41B5D9" stop-opacity="0"/>
<stop offset="1" stop-color="#41B5D9"/>
</linearGradient>
<linearGradient id="paint25_linear_6311_61" x1="506.735" y1="64.0428" x2="586.588" y2="161.35" gradientUnits="userSpaceOnUse">
<stop stop-color="white" stop-opacity="0.4"/>
<stop offset="1" stop-color="white" stop-opacity="0"/>
</linearGradient>
<radialGradient id="paint26_radial_6311_61" cx="0" cy="0" r="1" gradientUnits="userSpaceOnUse" gradientTransform="translate(611.014 100.597) rotate(68.9532) scale(23.8549 21.828)">
<stop stop-color="white"/>
<stop offset="1" stop-color="white" stop-opacity="0.5"/>
</radialGradient>
<linearGradient id="paint27_linear_6311_61" x1="580.889" y1="92.6429" x2="584.15" y2="99.711" gradientUnits="userSpaceOnUse">
<stop stop-color="white" stop-opacity="0.4"/>
<stop offset="1" stop-color="white" stop-opacity="0"/>
</linearGradient>
<radialGradient id="paint28_radial_6311_61" cx="0" cy="0" r="1" gradientUnits="userSpaceOnUse" gradientTransform="translate(605.974 87.5008) rotate(68.9532) scale(1.40323 6.5484)">
<stop stop-color="white"/>
<stop offset="1" stop-color="white" stop-opacity="0.5"/>
</radialGradient>
<linearGradient id="paint29_linear_6311_61" x1="560.844" y1="110.881" x2="563.878" y2="118.062" gradientUnits="userSpaceOnUse">
<stop stop-color="white" stop-opacity="0.4"/>
<stop offset="1" stop-color="white" stop-opacity="0"/>
</linearGradient>
<radialGradient id="paint30_radial_6311_61" cx="0" cy="0" r="1" gradientUnits="userSpaceOnUse" gradientTransform="translate(609.502 96.6681) rotate(68.9532) scale(1.40323 13.0968)">
<stop stop-color="white"/>
<stop offset="1" stop-color="white" stop-opacity="0.5"/>
</radialGradient>
<linearGradient id="paint31_linear_6311_61" x1="589.96" y1="116.216" x2="593.645" y2="123.017" gradientUnits="userSpaceOnUse">
<stop stop-color="white" stop-opacity="0.4"/>
<stop offset="1" stop-color="white" stop-opacity="0"/>
</linearGradient>
<radialGradient id="paint32_radial_6311_61" cx="0" cy="0" r="1" gradientUnits="userSpaceOnUse" gradientTransform="translate(603.259 115.609) rotate(68.9532) scale(1.40323 3.2742)">
<stop stop-color="white"/>
<stop offset="1" stop-color="white" stop-opacity="0.5"/>
</radialGradient>
</defs>
</svg>
